# This file uses centimeters as units for non-parametric coordinates.

mtllib anotherCornellBox.mtl
g default
v -1.010000 0.000000 0.990000
v 1.000000 0.000000 0.990000
v 1.000000 0.000000 -1.040000
v -0.990000 0.000000 -1.040000
vn 0.000000 1.000000 0.000000
vn 0.000000 1.000000 0.000000
vn 0.000000 1.000000 0.000000
vn 0.000000 1.000000 0.000000
s off
g CornellBox_Original_floor
usemtl CornellBox_Original_floor1
f 1//1 2//2 3//3 4//4
g default
v -1.020000 1.990000 0.990000
v -1.020000 1.990000 -1.040000
v 1.000000 1.990000 -1.040000
v 1.000000 1.990000 0.990000
vn 0.000000 -1.000000 0.000000
vn 0.000000 -1.000000 0.000000
vn 0.000000 -1.000000 0.000000
vn 0.000000 -1.000000 0.000000
s off
g CornellBox_Original_ceiling
usemtl CornellBox_Original_ceiling1
f 5//5 6//6 7//7 8//8
g default
v -0.990000 0.000000 -1.040000
v 1.000000 0.000000 -1.040000
v 1.000000 1.990000 -1.040000
v -1.020000 1.990000 -1.040000
vn 0.000000 0.000000 1.000000
vn 0.000000 0.000000 1.000000
vn 0.000000 0.000000 1.000000
vn 0.000000 0.000000 1.000000
s off
g CornellBox_Original_backWall
usemtl CornellBox_Original_backWall1
f 9//9 10//10 11//11 12//12
g default
v 1.000000 0.000000 -1.040000
v 1.000000 0.000000 0.990000
v 1.000000 1.990000 0.990000
v 1.000000 1.990000 -1.040000
vn -1.000000 0.000000 0.000000
vn -1.000000 0.000000 0.000000
vn -1.000000 0.000000 0.000000
vn -1.000000 0.000000 0.000000
s off
g CornellBox_Original_rightWall
usemtl CornellBox_Original_rightWall1
f 13//13 14//14 15//15 16//16
g default
v -1.010000 0.000000 0.990000
v -0.990000 0.000000 -1.040000
v -1.020000 1.990000 -1.040000
v -1.020000 1.990000 0.990000
v 0.530000 0.600000 0.750000
v 0.700000 0.600000 0.170000
v 0.130000 0.600000 0.000000
v -0.050000 0.600000 0.570000
v -0.050000 0.000000 0.570000
v -0.050000 0.600000 0.570000
v 0.130000 0.600000 0.000000
v 0.130000 0.000000 0.000000
v 0.530000 0.000000 0.750000
v 0.530000 0.600000 0.750000
v -0.050000 0.600000 0.570000
v -0.050000 0.000000 0.570000
v 0.700000 0.000000 0.170000
v 0.700000 0.600000 0.170000
v 0.530000 0.600000 0.750000
v 0.530000 0.000000 0.750000
v 0.130000 0.000000 0.000000
v 0.130000 0.600000 0.000000
v 0.700000 0.600000 0.170000
v 0.700000 0.000000 0.170000
vn 0.999937 0.010050 0.004926
vn 0.999937 0.010050 0.004926
vn 0.999937 0.010050 0.004926
vn 0.999937 0.010050 0.004926
vn 0.000000 1.000000 0.000000
vn 0.000000 1.000000 0.000000
vn 0.000000 1.000000 0.000000
vn 0.000000 1.000000 0.000000
vn -0.953583 0.000000 -0.301131
vn -0.953583 0.000000 -0.301131
vn -0.953583 0.000000 -0.301131
vn -0.953583 0.000000 -0.301131
vn -0.296399 0.000000 0.955064
vn -0.296399 0.000000 0.955064
vn -0.296399 0.000000 0.955064
vn -0.296399 0.000000 0.955064
vn 0.959629 0.000000 0.281270
vn 0.959629 0.000000 0.281270
vn 0.959629 0.000000 0.281270
vn 0.959629 0.000000 0.281270
vn 0.285805 0.000000 -0.958288
vn 0.285805 0.000000 -0.958288
vn 0.285805 0.000000 -0.958288
vn 0.285805 0.000000 -0.958288
s off
g CornellBox_Original_leftWall
usemtl CornellBox_Original_leftWall1
f 17//17 18//18 19//19 20//20
usemtl CornellBox_Original_shortBox1
f 21//21 22//22 23//23 24//24
f 25//25 26//26 27//27 28//28
f 29//29 30//30 31//31 32//32
f 33//33 34//34 35//35 36//36
f 37//37 38//38 39//39 40//40
g default
v -0.530000 1.200000 0.090000
v 0.040000 1.200000 -0.090000
v -0.140000 1.200000 -0.670000
v -0.710000 1.200000 -0.490000
v -0.530000 0.000000 0.090000
v -0.530000 1.200000 0.090000
v -0.710000 1.200000 -0.490000
v -0.710000 0.000000 -0.490000
v -0.710000 0.000000 -0.490000
v -0.710000 1.200000 -0.490000
v -0.140000 1.200000 -0.670000
v -0.140000 0.000000 -0.670000
v -0.140000 0.000000 -0.670000
v -0.140000 1.200000 -0.670000
v 0.040000 1.200000 -0.090000
v 0.040000 0.000000 -0.090000
v 0.040000 0.000000 -0.090000
v 0.040000 1.200000 -0.090000
v -0.530000 1.200000 0.090000
v -0.530000 0.000000 0.090000
vn 0.000000 1.000000 0.000000
vn 0.000000 1.000000 0.000000
vn 0.000000 1.000000 0.000000
vn 0.000000 1.000000 0.000000
vn -0.955064 0.000000 0.296399
vn -0.955064 0.000000 0.296399
vn -0.955064 0.000000 0.296399
vn -0.955064 0.000000 0.296399
vn -0.301131 0.000000 -0.953583
vn -0.301131 0.000000 -0.953583
vn -0.301131 0.000000 -0.953583
vn -0.301131 0.000000 -0.953583
vn 0.955064 0.000000 -0.296399
vn 0.955064 0.000000 -0.296399
vn 0.955064 0.000000 -0.296399
vn 0.955064 0.000000 -0.296399
vn 0.301131 0.000000 0.953583
vn 0.301131 0.000000 0.953583
vn 0.301131 0.000000 0.953583
vn 0.301131 0.000000 0.953583
s off
g CornellBox_Original_shortBox
usemtl CornellBox_Original_tallBox
f 41//41 42//42 43//43 44//44
f 45//45 46//46 47//47 48//48
f 49//49 50//50 51//51 52//52
f 53//53 54//54 55//55 56//56
f 57//57 58//58 59//59 60//60
g default
v -0.240000 1.980000 0.160000
v -0.240000 1.980000 -0.220000
v 0.230000 1.980000 -0.220000
v 0.230000 1.980000 0.160000
vn 0.000000 -1.000000 0.000000
vn 0.000000 -1.000000 0.000000
vn 0.000000 -1.000000 0.000000
vn 0.000000 -1.000000 0.000000
s off
g CornellBox_Original_light
usemtl CornellBox_Original_light1
f 61//61 62//62 63//63 64//64
